<mxfile host="app.diagrams.net" modified="2023-09-14T01:38:32.578Z" agent="Mozilla/5.0 (Windows NT 10.0; Win64; x64; rv:109.0) Gecko/20100101 Firefox/117.0" etag="YHDzLUV_txs3plcpFujA" version="21.7.4" type="device">
  <diagram name="Page-1" id="8shDlv2Ui_gVALjCax32">
    <mxGraphModel dx="2593" dy="1440" grid="1" gridSize="10" guides="1" tooltips="1" connect="1" arrows="0" fold="1" page="1" pageScale="1" pageWidth="1920" pageHeight="1200" math="0" shadow="0">
      <root>
        <mxCell id="0" />
        <mxCell id="1" parent="0" />
        <mxCell id="HyYFRJvW0_E68dOf1usp-10" value="Customer" style="whiteSpace=wrap;html=1;align=center;" parent="1" vertex="1">
          <mxGeometry x="110" y="60" width="100" height="40" as="geometry" />
        </mxCell>
        <mxCell id="HyYFRJvW0_E68dOf1usp-11" value="Address" style="ellipse;whiteSpace=wrap;html=1;align=center;" parent="1" vertex="1">
          <mxGeometry x="270" y="120" width="100" height="40" as="geometry" />
        </mxCell>
        <mxCell id="HyYFRJvW0_E68dOf1usp-12" value="Phone Number" style="ellipse;whiteSpace=wrap;html=1;align=center;" parent="1" vertex="1">
          <mxGeometry x="270" y="300" width="100" height="40" as="geometry" />
        </mxCell>
        <mxCell id="HyYFRJvW0_E68dOf1usp-14" value="Postal Code" style="ellipse;whiteSpace=wrap;html=1;align=center;" parent="1" vertex="1">
          <mxGeometry x="410" y="270" width="100" height="40" as="geometry" />
        </mxCell>
        <mxCell id="HyYFRJvW0_E68dOf1usp-15" value="State" style="ellipse;whiteSpace=wrap;html=1;align=center;" parent="1" vertex="1">
          <mxGeometry x="410" y="220" width="100" height="40" as="geometry" />
        </mxCell>
        <mxCell id="HyYFRJvW0_E68dOf1usp-16" value="City" style="ellipse;whiteSpace=wrap;html=1;align=center;" parent="1" vertex="1">
          <mxGeometry x="410" y="170" width="100" height="40" as="geometry" />
        </mxCell>
        <mxCell id="HyYFRJvW0_E68dOf1usp-17" value="Street" style="ellipse;whiteSpace=wrap;html=1;align=center;" parent="1" vertex="1">
          <mxGeometry x="410" y="120" width="100" height="40" as="geometry" />
        </mxCell>
        <mxCell id="HyYFRJvW0_E68dOf1usp-40" value="e-mail" style="ellipse;whiteSpace=wrap;html=1;align=center;" parent="1" vertex="1">
          <mxGeometry x="270" y="360" width="100" height="40" as="geometry" />
        </mxCell>
        <mxCell id="HyYFRJvW0_E68dOf1usp-44" value="" style="endArrow=none;html=1;rounded=0;exitX=0.5;exitY=1;exitDx=0;exitDy=0;" parent="1" source="HyYFRJvW0_E68dOf1usp-10" edge="1">
          <mxGeometry relative="1" as="geometry">
            <mxPoint x="110" y="139.70999999999998" as="sourcePoint" />
            <mxPoint x="270" y="139.70999999999998" as="targetPoint" />
            <Array as="points">
              <mxPoint x="160" y="140" />
            </Array>
          </mxGeometry>
        </mxCell>
        <mxCell id="HyYFRJvW0_E68dOf1usp-45" value="1" style="resizable=0;html=1;whiteSpace=wrap;align=right;verticalAlign=bottom;" parent="HyYFRJvW0_E68dOf1usp-44" connectable="0" vertex="1">
          <mxGeometry x="1" relative="1" as="geometry" />
        </mxCell>
        <mxCell id="HyYFRJvW0_E68dOf1usp-46" value="" style="endArrow=none;html=1;rounded=0;" parent="1" edge="1">
          <mxGeometry relative="1" as="geometry">
            <mxPoint x="370" y="139.70999999999998" as="sourcePoint" />
            <mxPoint x="410" y="140" as="targetPoint" />
          </mxGeometry>
        </mxCell>
        <mxCell id="HyYFRJvW0_E68dOf1usp-47" value="1" style="resizable=0;html=1;whiteSpace=wrap;align=right;verticalAlign=bottom;" parent="HyYFRJvW0_E68dOf1usp-46" connectable="0" vertex="1">
          <mxGeometry x="1" relative="1" as="geometry" />
        </mxCell>
        <mxCell id="HyYFRJvW0_E68dOf1usp-48" value="" style="endArrow=none;html=1;rounded=0;exitX=0.5;exitY=1;exitDx=0;exitDy=0;" parent="1" source="HyYFRJvW0_E68dOf1usp-10" edge="1">
          <mxGeometry relative="1" as="geometry">
            <mxPoint x="110" y="319.71" as="sourcePoint" />
            <mxPoint x="270" y="319.71" as="targetPoint" />
            <Array as="points">
              <mxPoint x="160" y="320" />
            </Array>
          </mxGeometry>
        </mxCell>
        <mxCell id="HyYFRJvW0_E68dOf1usp-49" value="1" style="resizable=0;html=1;whiteSpace=wrap;align=right;verticalAlign=bottom;" parent="HyYFRJvW0_E68dOf1usp-48" connectable="0" vertex="1">
          <mxGeometry x="1" relative="1" as="geometry" />
        </mxCell>
        <mxCell id="HyYFRJvW0_E68dOf1usp-50" value="" style="endArrow=none;html=1;rounded=0;entryX=0;entryY=0.5;entryDx=0;entryDy=0;" parent="1" target="HyYFRJvW0_E68dOf1usp-14" edge="1">
          <mxGeometry relative="1" as="geometry">
            <mxPoint x="370" y="139.70999999999998" as="sourcePoint" />
            <mxPoint x="530" y="139.70999999999998" as="targetPoint" />
            <Array as="points">
              <mxPoint x="370" y="290" />
            </Array>
          </mxGeometry>
        </mxCell>
        <mxCell id="HyYFRJvW0_E68dOf1usp-51" value="1" style="resizable=0;html=1;whiteSpace=wrap;align=right;verticalAlign=bottom;" parent="HyYFRJvW0_E68dOf1usp-50" connectable="0" vertex="1">
          <mxGeometry x="1" relative="1" as="geometry" />
        </mxCell>
        <mxCell id="HyYFRJvW0_E68dOf1usp-52" value="" style="endArrow=none;html=1;rounded=0;entryX=0;entryY=0.5;entryDx=0;entryDy=0;" parent="1" target="HyYFRJvW0_E68dOf1usp-15" edge="1">
          <mxGeometry relative="1" as="geometry">
            <mxPoint x="370" y="139.70999999999998" as="sourcePoint" />
            <mxPoint x="530" y="139.70999999999998" as="targetPoint" />
            <Array as="points">
              <mxPoint x="370" y="240" />
            </Array>
          </mxGeometry>
        </mxCell>
        <mxCell id="HyYFRJvW0_E68dOf1usp-53" value="1" style="resizable=0;html=1;whiteSpace=wrap;align=right;verticalAlign=bottom;" parent="HyYFRJvW0_E68dOf1usp-52" connectable="0" vertex="1">
          <mxGeometry x="1" relative="1" as="geometry" />
        </mxCell>
        <mxCell id="HyYFRJvW0_E68dOf1usp-54" value="" style="endArrow=none;html=1;rounded=0;entryX=0;entryY=0.5;entryDx=0;entryDy=0;" parent="1" target="HyYFRJvW0_E68dOf1usp-16" edge="1">
          <mxGeometry relative="1" as="geometry">
            <mxPoint x="370" y="139.70999999999998" as="sourcePoint" />
            <mxPoint x="530" y="139.70999999999998" as="targetPoint" />
            <Array as="points">
              <mxPoint x="370" y="190" />
            </Array>
          </mxGeometry>
        </mxCell>
        <mxCell id="HyYFRJvW0_E68dOf1usp-55" value="1" style="resizable=0;html=1;whiteSpace=wrap;align=right;verticalAlign=bottom;" parent="HyYFRJvW0_E68dOf1usp-54" connectable="0" vertex="1">
          <mxGeometry x="1" relative="1" as="geometry" />
        </mxCell>
        <mxCell id="HyYFRJvW0_E68dOf1usp-58" value="" style="endArrow=none;html=1;rounded=0;dashed=1;dashPattern=1 2;" parent="1" source="HyYFRJvW0_E68dOf1usp-10" edge="1">
          <mxGeometry relative="1" as="geometry">
            <mxPoint x="110" y="379.71000000000004" as="sourcePoint" />
            <mxPoint x="270" y="379.71000000000004" as="targetPoint" />
            <Array as="points">
              <mxPoint x="160" y="380" />
            </Array>
          </mxGeometry>
        </mxCell>
        <mxCell id="HyYFRJvW0_E68dOf1usp-59" value="1" style="resizable=0;html=1;whiteSpace=wrap;align=right;verticalAlign=bottom;" parent="HyYFRJvW0_E68dOf1usp-58" connectable="0" vertex="1">
          <mxGeometry x="1" relative="1" as="geometry" />
        </mxCell>
        <mxCell id="eF1gSp4A3v6u9YD-OLK1-1" value="contact last name" style="ellipse;whiteSpace=wrap;html=1;align=center;" vertex="1" parent="1">
          <mxGeometry x="430" y="690" width="100" height="40" as="geometry" />
        </mxCell>
        <mxCell id="eF1gSp4A3v6u9YD-OLK1-2" value="contact first name" style="ellipse;whiteSpace=wrap;html=1;align=center;" vertex="1" parent="1">
          <mxGeometry x="430" y="640" width="100" height="40" as="geometry" />
        </mxCell>
        <mxCell id="eF1gSp4A3v6u9YD-OLK1-3" value="business name" style="ellipse;whiteSpace=wrap;html=1;align=center;" vertex="1" parent="1">
          <mxGeometry x="430" y="590" width="100" height="40" as="geometry" />
        </mxCell>
        <mxCell id="eF1gSp4A3v6u9YD-OLK1-4" value="&lt;b&gt;&lt;u&gt;business tax id&lt;/u&gt;&lt;br&gt;&lt;/b&gt;" style="ellipse;whiteSpace=wrap;html=1;align=center;" vertex="1" parent="1">
          <mxGeometry x="430" y="540" width="100" height="40" as="geometry" />
        </mxCell>
        <mxCell id="eF1gSp4A3v6u9YD-OLK1-5" value="" style="endArrow=none;html=1;rounded=0;exitX=1;exitY=0.5;exitDx=0;exitDy=0;" edge="1" parent="1" source="eF1gSp4A3v6u9YD-OLK1-34">
          <mxGeometry relative="1" as="geometry">
            <mxPoint x="390" y="559.71" as="sourcePoint" />
            <mxPoint x="430" y="560" as="targetPoint" />
          </mxGeometry>
        </mxCell>
        <mxCell id="eF1gSp4A3v6u9YD-OLK1-6" value="1" style="resizable=0;html=1;whiteSpace=wrap;align=right;verticalAlign=bottom;" connectable="0" vertex="1" parent="eF1gSp4A3v6u9YD-OLK1-5">
          <mxGeometry x="1" relative="1" as="geometry" />
        </mxCell>
        <mxCell id="eF1gSp4A3v6u9YD-OLK1-7" value="" style="endArrow=none;html=1;rounded=0;entryX=0;entryY=0.5;entryDx=0;entryDy=0;" edge="1" target="eF1gSp4A3v6u9YD-OLK1-1" parent="1">
          <mxGeometry relative="1" as="geometry">
            <mxPoint x="390" y="559.71" as="sourcePoint" />
            <mxPoint x="550" y="559.71" as="targetPoint" />
            <Array as="points">
              <mxPoint x="390" y="710" />
            </Array>
          </mxGeometry>
        </mxCell>
        <mxCell id="eF1gSp4A3v6u9YD-OLK1-8" value="1" style="resizable=0;html=1;whiteSpace=wrap;align=right;verticalAlign=bottom;" connectable="0" vertex="1" parent="eF1gSp4A3v6u9YD-OLK1-7">
          <mxGeometry x="1" relative="1" as="geometry" />
        </mxCell>
        <mxCell id="eF1gSp4A3v6u9YD-OLK1-9" value="" style="endArrow=none;html=1;rounded=0;entryX=0;entryY=0.5;entryDx=0;entryDy=0;" edge="1" target="eF1gSp4A3v6u9YD-OLK1-2" parent="1">
          <mxGeometry relative="1" as="geometry">
            <mxPoint x="390" y="559.71" as="sourcePoint" />
            <mxPoint x="550" y="559.71" as="targetPoint" />
            <Array as="points">
              <mxPoint x="390" y="660" />
            </Array>
          </mxGeometry>
        </mxCell>
        <mxCell id="eF1gSp4A3v6u9YD-OLK1-10" value="1" style="resizable=0;html=1;whiteSpace=wrap;align=right;verticalAlign=bottom;" connectable="0" vertex="1" parent="eF1gSp4A3v6u9YD-OLK1-9">
          <mxGeometry x="1" relative="1" as="geometry" />
        </mxCell>
        <mxCell id="eF1gSp4A3v6u9YD-OLK1-11" value="" style="endArrow=none;html=1;rounded=0;entryX=0;entryY=0.5;entryDx=0;entryDy=0;" edge="1" target="eF1gSp4A3v6u9YD-OLK1-3" parent="1">
          <mxGeometry relative="1" as="geometry">
            <mxPoint x="390" y="559.71" as="sourcePoint" />
            <mxPoint x="550" y="559.71" as="targetPoint" />
            <Array as="points">
              <mxPoint x="390" y="610" />
            </Array>
          </mxGeometry>
        </mxCell>
        <mxCell id="eF1gSp4A3v6u9YD-OLK1-12" value="1" style="resizable=0;html=1;whiteSpace=wrap;align=right;verticalAlign=bottom;" connectable="0" vertex="1" parent="eF1gSp4A3v6u9YD-OLK1-11">
          <mxGeometry x="1" relative="1" as="geometry" />
        </mxCell>
        <mxCell id="eF1gSp4A3v6u9YD-OLK1-14" value="&lt;b&gt;&lt;u&gt;drivers license number&lt;/u&gt;&lt;/b&gt;" style="ellipse;whiteSpace=wrap;html=1;align=center;" vertex="1" parent="1">
          <mxGeometry x="430" y="430" width="100" height="40" as="geometry" />
        </mxCell>
        <mxCell id="eF1gSp4A3v6u9YD-OLK1-15" value="last name" style="ellipse;whiteSpace=wrap;html=1;align=center;" vertex="1" parent="1">
          <mxGeometry x="430" y="380" width="100" height="40" as="geometry" />
        </mxCell>
        <mxCell id="eF1gSp4A3v6u9YD-OLK1-16" value="first name" style="ellipse;whiteSpace=wrap;html=1;align=center;" vertex="1" parent="1">
          <mxGeometry x="430" y="330" width="100" height="40" as="geometry" />
        </mxCell>
        <mxCell id="eF1gSp4A3v6u9YD-OLK1-17" value="" style="endArrow=none;html=1;rounded=0;" edge="1" parent="1">
          <mxGeometry relative="1" as="geometry">
            <mxPoint x="390" y="349.71000000000004" as="sourcePoint" />
            <mxPoint x="430" y="350" as="targetPoint" />
          </mxGeometry>
        </mxCell>
        <mxCell id="eF1gSp4A3v6u9YD-OLK1-18" value="1" style="resizable=0;html=1;whiteSpace=wrap;align=right;verticalAlign=bottom;" connectable="0" vertex="1" parent="eF1gSp4A3v6u9YD-OLK1-17">
          <mxGeometry x="1" relative="1" as="geometry" />
        </mxCell>
        <mxCell id="eF1gSp4A3v6u9YD-OLK1-21" value="" style="endArrow=none;html=1;rounded=0;entryX=0;entryY=0.5;entryDx=0;entryDy=0;" edge="1" target="eF1gSp4A3v6u9YD-OLK1-14" parent="1">
          <mxGeometry relative="1" as="geometry">
            <mxPoint x="390" y="349.71000000000004" as="sourcePoint" />
            <mxPoint x="550" y="349.71000000000004" as="targetPoint" />
            <Array as="points">
              <mxPoint x="390" y="450" />
              <mxPoint x="370" y="450" />
            </Array>
          </mxGeometry>
        </mxCell>
        <mxCell id="eF1gSp4A3v6u9YD-OLK1-22" value="1" style="resizable=0;html=1;whiteSpace=wrap;align=right;verticalAlign=bottom;" connectable="0" vertex="1" parent="eF1gSp4A3v6u9YD-OLK1-21">
          <mxGeometry x="1" relative="1" as="geometry" />
        </mxCell>
        <mxCell id="eF1gSp4A3v6u9YD-OLK1-23" value="" style="endArrow=none;html=1;rounded=0;entryX=0;entryY=0.5;entryDx=0;entryDy=0;" edge="1" target="eF1gSp4A3v6u9YD-OLK1-15" parent="1">
          <mxGeometry relative="1" as="geometry">
            <mxPoint x="390" y="349.71000000000004" as="sourcePoint" />
            <mxPoint x="550" y="349.71000000000004" as="targetPoint" />
            <Array as="points">
              <mxPoint x="390" y="400" />
            </Array>
          </mxGeometry>
        </mxCell>
        <mxCell id="eF1gSp4A3v6u9YD-OLK1-24" value="1" style="resizable=0;html=1;whiteSpace=wrap;align=right;verticalAlign=bottom;" connectable="0" vertex="1" parent="eF1gSp4A3v6u9YD-OLK1-23">
          <mxGeometry x="1" relative="1" as="geometry" />
        </mxCell>
        <mxCell id="eF1gSp4A3v6u9YD-OLK1-28" value="contact title" style="ellipse;whiteSpace=wrap;html=1;align=center;" vertex="1" parent="1">
          <mxGeometry x="430.29" y="740" width="100" height="40" as="geometry" />
        </mxCell>
        <mxCell id="eF1gSp4A3v6u9YD-OLK1-29" value="" style="endArrow=none;html=1;rounded=0;entryX=0;entryY=0.5;entryDx=0;entryDy=0;" edge="1" parent="1">
          <mxGeometry relative="1" as="geometry">
            <mxPoint x="390" y="610" as="sourcePoint" />
            <mxPoint x="430" y="760.29" as="targetPoint" />
            <Array as="points">
              <mxPoint x="390" y="760.29" />
            </Array>
          </mxGeometry>
        </mxCell>
        <mxCell id="eF1gSp4A3v6u9YD-OLK1-30" value="1" style="resizable=0;html=1;whiteSpace=wrap;align=right;verticalAlign=bottom;" connectable="0" vertex="1" parent="eF1gSp4A3v6u9YD-OLK1-29">
          <mxGeometry x="1" relative="1" as="geometry" />
        </mxCell>
        <mxCell id="eF1gSp4A3v6u9YD-OLK1-31" value="Seller" style="whiteSpace=wrap;html=1;align=center;" vertex="1" parent="1">
          <mxGeometry x="660" y="120" width="100" height="40" as="geometry" />
        </mxCell>
        <mxCell id="eF1gSp4A3v6u9YD-OLK1-33" value="Individual" style="whiteSpace=wrap;html=1;align=center;" vertex="1" parent="1">
          <mxGeometry x="270" y="430" width="100" height="40" as="geometry" />
        </mxCell>
        <mxCell id="eF1gSp4A3v6u9YD-OLK1-34" value="Individual" style="whiteSpace=wrap;html=1;align=center;" vertex="1" parent="1">
          <mxGeometry x="270" y="540" width="100" height="40" as="geometry" />
        </mxCell>
        <mxCell id="eF1gSp4A3v6u9YD-OLK1-35" value="d" style="ellipse;whiteSpace=wrap;html=1;aspect=fixed;" vertex="1" parent="1">
          <mxGeometry x="145" y="435" width="30" height="30" as="geometry" />
        </mxCell>
        <mxCell id="eF1gSp4A3v6u9YD-OLK1-36" value="" style="endArrow=none;html=1;rounded=0;exitX=0.5;exitY=0;exitDx=0;exitDy=0;entryX=0.5;entryY=1;entryDx=0;entryDy=0;" edge="1" parent="1" source="eF1gSp4A3v6u9YD-OLK1-35" target="HyYFRJvW0_E68dOf1usp-10">
          <mxGeometry relative="1" as="geometry">
            <mxPoint x="980" y="530" as="sourcePoint" />
            <mxPoint x="1140" y="530" as="targetPoint" />
          </mxGeometry>
        </mxCell>
        <mxCell id="eF1gSp4A3v6u9YD-OLK1-37" value="" style="endArrow=none;html=1;rounded=0;entryX=0;entryY=0.5;entryDx=0;entryDy=0;exitX=1;exitY=0.5;exitDx=0;exitDy=0;" edge="1" parent="1" source="eF1gSp4A3v6u9YD-OLK1-35" target="eF1gSp4A3v6u9YD-OLK1-33">
          <mxGeometry relative="1" as="geometry">
            <mxPoint x="175" y="454.5" as="sourcePoint" />
            <mxPoint x="335" y="454.5" as="targetPoint" />
          </mxGeometry>
        </mxCell>
        <mxCell id="eF1gSp4A3v6u9YD-OLK1-38" value="" style="endArrow=none;html=1;rounded=0;entryX=0;entryY=0.5;entryDx=0;entryDy=0;" edge="1" parent="1" source="eF1gSp4A3v6u9YD-OLK1-35" target="eF1gSp4A3v6u9YD-OLK1-34">
          <mxGeometry relative="1" as="geometry">
            <mxPoint x="170" y="450" as="sourcePoint" />
            <mxPoint x="260" y="559.5" as="targetPoint" />
            <Array as="points">
              <mxPoint x="230" y="450" />
              <mxPoint x="230" y="560" />
            </Array>
          </mxGeometry>
        </mxCell>
        <mxCell id="eF1gSp4A3v6u9YD-OLK1-39" value="U" style="text;html=1;align=center;verticalAlign=middle;resizable=0;points=[];autosize=1;strokeColor=none;fillColor=none;rotation=-90;" vertex="1" parent="1">
          <mxGeometry x="180" y="430" width="30" height="30" as="geometry" />
        </mxCell>
        <mxCell id="eF1gSp4A3v6u9YD-OLK1-41" value="Buyer" style="whiteSpace=wrap;html=1;align=center;" vertex="1" parent="1">
          <mxGeometry x="870" y="120" width="100" height="40" as="geometry" />
        </mxCell>
        <mxCell id="eF1gSp4A3v6u9YD-OLK1-42" value="" style="endArrow=none;html=1;rounded=0;exitX=1;exitY=0.5;exitDx=0;exitDy=0;entryX=0;entryY=0.5;entryDx=0;entryDy=0;" edge="1" parent="1" target="eF1gSp4A3v6u9YD-OLK1-48">
          <mxGeometry relative="1" as="geometry">
            <mxPoint x="210" y="77.5" as="sourcePoint" />
            <mxPoint x="430.28999999999996" y="77" as="targetPoint" />
          </mxGeometry>
        </mxCell>
        <mxCell id="eF1gSp4A3v6u9YD-OLK1-48" value="d" style="ellipse;whiteSpace=wrap;html=1;aspect=fixed;" vertex="1" parent="1">
          <mxGeometry x="540" y="65" width="30" height="30" as="geometry" />
        </mxCell>
        <mxCell id="eF1gSp4A3v6u9YD-OLK1-49" value="U" style="text;html=1;align=center;verticalAlign=middle;resizable=0;points=[];autosize=1;strokeColor=none;fillColor=none;rotation=-90;" vertex="1" parent="1">
          <mxGeometry x="575" y="60" width="30" height="30" as="geometry" />
        </mxCell>
        <mxCell id="eF1gSp4A3v6u9YD-OLK1-50" value="" style="endArrow=none;html=1;rounded=0;entryX=0.5;entryY=0;entryDx=0;entryDy=0;" edge="1" parent="1" source="eF1gSp4A3v6u9YD-OLK1-48" target="eF1gSp4A3v6u9YD-OLK1-41">
          <mxGeometry relative="1" as="geometry">
            <mxPoint x="640" y="79.5" as="sourcePoint" />
            <mxPoint x="800" y="79.5" as="targetPoint" />
            <Array as="points">
              <mxPoint x="920" y="80" />
            </Array>
          </mxGeometry>
        </mxCell>
        <mxCell id="eF1gSp4A3v6u9YD-OLK1-51" value="" style="endArrow=none;html=1;rounded=0;entryX=0.5;entryY=0;entryDx=0;entryDy=0;exitX=1;exitY=0.5;exitDx=0;exitDy=0;" edge="1" parent="1" source="eF1gSp4A3v6u9YD-OLK1-48" target="eF1gSp4A3v6u9YD-OLK1-31">
          <mxGeometry relative="1" as="geometry">
            <mxPoint x="630" y="50" as="sourcePoint" />
            <mxPoint x="790" y="50" as="targetPoint" />
            <Array as="points">
              <mxPoint x="710" y="80" />
            </Array>
          </mxGeometry>
        </mxCell>
        <mxCell id="eF1gSp4A3v6u9YD-OLK1-52" value="Vehicle Sold" style="whiteSpace=wrap;html=1;align=center;" vertex="1" parent="1">
          <mxGeometry x="660" y="240" width="100" height="40" as="geometry" />
        </mxCell>
        <mxCell id="eF1gSp4A3v6u9YD-OLK1-53" value="" style="endArrow=none;html=1;rounded=0;exitX=0.5;exitY=1;exitDx=0;exitDy=0;entryX=0.5;entryY=0;entryDx=0;entryDy=0;" edge="1" parent="1" source="eF1gSp4A3v6u9YD-OLK1-31" target="eF1gSp4A3v6u9YD-OLK1-52">
          <mxGeometry relative="1" as="geometry">
            <mxPoint x="980" y="530" as="sourcePoint" />
            <mxPoint x="1140" y="530" as="targetPoint" />
          </mxGeometry>
        </mxCell>
        <mxCell id="eF1gSp4A3v6u9YD-OLK1-54" value="N" style="resizable=0;html=1;whiteSpace=wrap;align=right;verticalAlign=bottom;" connectable="0" vertex="1" parent="eF1gSp4A3v6u9YD-OLK1-53">
          <mxGeometry x="1" relative="1" as="geometry" />
        </mxCell>
        <mxCell id="eF1gSp4A3v6u9YD-OLK1-55" value="Has" style="shape=rhombus;perimeter=rhombusPerimeter;whiteSpace=wrap;html=1;align=center;" vertex="1" parent="1">
          <mxGeometry x="1070" y="260" width="120" height="60" as="geometry" />
        </mxCell>
        <mxCell id="eF1gSp4A3v6u9YD-OLK1-57" value="Sell Date" style="ellipse;whiteSpace=wrap;html=1;align=center;" vertex="1" parent="1">
          <mxGeometry x="750" y="360" width="100" height="40" as="geometry" />
        </mxCell>
        <mxCell id="eF1gSp4A3v6u9YD-OLK1-59" value="Sell Price" style="ellipse;whiteSpace=wrap;html=1;align=center;" vertex="1" parent="1">
          <mxGeometry x="750" y="310" width="100" height="40" as="geometry" />
        </mxCell>
        <mxCell id="eF1gSp4A3v6u9YD-OLK1-60" value="" style="endArrow=none;html=1;rounded=0;" edge="1" parent="1">
          <mxGeometry relative="1" as="geometry">
            <mxPoint x="710" y="330" as="sourcePoint" />
            <mxPoint x="750" y="330" as="targetPoint" />
          </mxGeometry>
        </mxCell>
        <mxCell id="eF1gSp4A3v6u9YD-OLK1-61" value="1" style="resizable=0;html=1;whiteSpace=wrap;align=right;verticalAlign=bottom;" connectable="0" vertex="1" parent="eF1gSp4A3v6u9YD-OLK1-60">
          <mxGeometry x="1" relative="1" as="geometry" />
        </mxCell>
        <mxCell id="eF1gSp4A3v6u9YD-OLK1-62" value="" style="endArrow=none;html=1;rounded=0;entryX=0;entryY=0.5;entryDx=0;entryDy=0;exitX=0.5;exitY=1;exitDx=0;exitDy=0;" edge="1" target="eF1gSp4A3v6u9YD-OLK1-55" parent="1" source="eF1gSp4A3v6u9YD-OLK1-52">
          <mxGeometry relative="1" as="geometry">
            <mxPoint x="710" y="329.71000000000004" as="sourcePoint" />
            <mxPoint x="750" y="480" as="targetPoint" />
            <Array as="points">
              <mxPoint x="710" y="290" />
            </Array>
          </mxGeometry>
        </mxCell>
        <mxCell id="eF1gSp4A3v6u9YD-OLK1-63" value="1" style="resizable=0;html=1;whiteSpace=wrap;align=right;verticalAlign=bottom;" connectable="0" vertex="1" parent="eF1gSp4A3v6u9YD-OLK1-62">
          <mxGeometry x="1" relative="1" as="geometry" />
        </mxCell>
        <mxCell id="eF1gSp4A3v6u9YD-OLK1-64" value="" style="endArrow=none;html=1;rounded=0;entryX=0;entryY=0.5;entryDx=0;entryDy=0;" edge="1" target="eF1gSp4A3v6u9YD-OLK1-57" parent="1">
          <mxGeometry relative="1" as="geometry">
            <mxPoint x="710" y="280" as="sourcePoint" />
            <mxPoint x="870" y="329.71000000000004" as="targetPoint" />
            <Array as="points">
              <mxPoint x="710" y="380" />
            </Array>
          </mxGeometry>
        </mxCell>
        <mxCell id="eF1gSp4A3v6u9YD-OLK1-65" value="1" style="resizable=0;html=1;whiteSpace=wrap;align=right;verticalAlign=bottom;" connectable="0" vertex="1" parent="eF1gSp4A3v6u9YD-OLK1-64">
          <mxGeometry x="1" relative="1" as="geometry" />
        </mxCell>
        <mxCell id="eF1gSp4A3v6u9YD-OLK1-66" value="" style="endArrow=none;html=1;rounded=0;" edge="1" target="eF1gSp4A3v6u9YD-OLK1-97" parent="1">
          <mxGeometry relative="1" as="geometry">
            <mxPoint x="710" y="329.71000000000004" as="sourcePoint" />
            <mxPoint x="675" y="380" as="targetPoint" />
            <Array as="points">
              <mxPoint x="710" y="380" />
            </Array>
          </mxGeometry>
        </mxCell>
        <mxCell id="eF1gSp4A3v6u9YD-OLK1-67" value="1" style="resizable=0;html=1;whiteSpace=wrap;align=right;verticalAlign=bottom;" connectable="0" vertex="1" parent="eF1gSp4A3v6u9YD-OLK1-66">
          <mxGeometry x="1" relative="1" as="geometry">
            <mxPoint x="15" as="offset" />
          </mxGeometry>
        </mxCell>
        <mxCell id="eF1gSp4A3v6u9YD-OLK1-85" value="Purchase Date" style="ellipse;whiteSpace=wrap;html=1;align=center;" vertex="1" parent="1">
          <mxGeometry x="960" y="355" width="100" height="40" as="geometry" />
        </mxCell>
        <mxCell id="eF1gSp4A3v6u9YD-OLK1-87" value="" style="endArrow=none;html=1;rounded=0;entryX=0;entryY=0.5;entryDx=0;entryDy=0;" edge="1" parent="1" target="eF1gSp4A3v6u9YD-OLK1-124">
          <mxGeometry relative="1" as="geometry">
            <mxPoint x="920" y="320" as="sourcePoint" />
            <mxPoint x="960" y="325" as="targetPoint" />
          </mxGeometry>
        </mxCell>
        <mxCell id="eF1gSp4A3v6u9YD-OLK1-88" value="1" style="resizable=0;html=1;whiteSpace=wrap;align=right;verticalAlign=bottom;" connectable="0" vertex="1" parent="eF1gSp4A3v6u9YD-OLK1-87">
          <mxGeometry x="1" relative="1" as="geometry" />
        </mxCell>
        <mxCell id="eF1gSp4A3v6u9YD-OLK1-89" value="" style="endArrow=none;html=1;rounded=0;entryX=0;entryY=0.5;entryDx=0;entryDy=0;exitX=0.5;exitY=1;exitDx=0;exitDy=0;" edge="1" target="eF1gSp4A3v6u9YD-OLK1-85" parent="1" source="eF1gSp4A3v6u9YD-OLK1-91">
          <mxGeometry relative="1" as="geometry">
            <mxPoint x="920" y="324.71000000000004" as="sourcePoint" />
            <mxPoint x="1080" y="324.71000000000004" as="targetPoint" />
            <Array as="points">
              <mxPoint x="920" y="375" />
            </Array>
          </mxGeometry>
        </mxCell>
        <mxCell id="eF1gSp4A3v6u9YD-OLK1-90" value="1" style="resizable=0;html=1;whiteSpace=wrap;align=right;verticalAlign=bottom;" connectable="0" vertex="1" parent="eF1gSp4A3v6u9YD-OLK1-89">
          <mxGeometry x="1" relative="1" as="geometry" />
        </mxCell>
        <mxCell id="eF1gSp4A3v6u9YD-OLK1-91" value="Vehicle Bought" style="whiteSpace=wrap;html=1;align=center;" vertex="1" parent="1">
          <mxGeometry x="870" y="240" width="100" height="40" as="geometry" />
        </mxCell>
        <mxCell id="eF1gSp4A3v6u9YD-OLK1-92" value="" style="endArrow=none;html=1;rounded=0;" edge="1" parent="1" source="eF1gSp4A3v6u9YD-OLK1-41" target="eF1gSp4A3v6u9YD-OLK1-91">
          <mxGeometry relative="1" as="geometry">
            <mxPoint x="919.5" y="160" as="sourcePoint" />
            <mxPoint x="919.5" y="240" as="targetPoint" />
          </mxGeometry>
        </mxCell>
        <mxCell id="eF1gSp4A3v6u9YD-OLK1-93" value="N" style="resizable=0;html=1;whiteSpace=wrap;align=right;verticalAlign=bottom;" connectable="0" vertex="1" parent="eF1gSp4A3v6u9YD-OLK1-92">
          <mxGeometry x="1" relative="1" as="geometry" />
        </mxCell>
        <mxCell id="eF1gSp4A3v6u9YD-OLK1-94" value="" style="endArrow=none;html=1;rounded=0;entryX=0;entryY=0.5;entryDx=0;entryDy=0;exitX=0.5;exitY=1;exitDx=0;exitDy=0;" edge="1" parent="1" target="eF1gSp4A3v6u9YD-OLK1-55">
          <mxGeometry relative="1" as="geometry">
            <mxPoint x="920" y="280" as="sourcePoint" />
            <mxPoint x="1360" y="480" as="targetPoint" />
            <Array as="points">
              <mxPoint x="920" y="290" />
            </Array>
          </mxGeometry>
        </mxCell>
        <mxCell id="eF1gSp4A3v6u9YD-OLK1-96" value="Vehicle" style="whiteSpace=wrap;html=1;align=center;" vertex="1" parent="1">
          <mxGeometry x="1210.1599999999999" y="60" width="100" height="40" as="geometry" />
        </mxCell>
        <mxCell id="eF1gSp4A3v6u9YD-OLK1-97" value="Condition" style="whiteSpace=wrap;html=1;align=center;" vertex="1" parent="1">
          <mxGeometry x="575" y="360" width="100" height="40" as="geometry" />
        </mxCell>
        <mxCell id="eF1gSp4A3v6u9YD-OLK1-98" value="Excellent" style="whiteSpace=wrap;html=1;align=center;" vertex="1" parent="1">
          <mxGeometry x="640" y="535" width="100" height="40" as="geometry" />
        </mxCell>
        <mxCell id="eF1gSp4A3v6u9YD-OLK1-99" value="Very Good" style="whiteSpace=wrap;html=1;align=center;" vertex="1" parent="1">
          <mxGeometry x="640" y="595" width="100" height="40" as="geometry" />
        </mxCell>
        <mxCell id="eF1gSp4A3v6u9YD-OLK1-100" value="Good" style="whiteSpace=wrap;html=1;align=center;" vertex="1" parent="1">
          <mxGeometry x="640" y="655" width="100" height="40" as="geometry" />
        </mxCell>
        <mxCell id="eF1gSp4A3v6u9YD-OLK1-101" value="Fair" style="whiteSpace=wrap;html=1;align=center;" vertex="1" parent="1">
          <mxGeometry x="640" y="715" width="100" height="40" as="geometry" />
        </mxCell>
        <mxCell id="eF1gSp4A3v6u9YD-OLK1-102" value="d" style="ellipse;whiteSpace=wrap;html=1;aspect=fixed;" vertex="1" parent="1">
          <mxGeometry x="610" y="450" width="30" height="30" as="geometry" />
        </mxCell>
        <mxCell id="eF1gSp4A3v6u9YD-OLK1-104" value="" style="endArrow=none;html=1;rounded=0;exitX=0.5;exitY=1;exitDx=0;exitDy=0;entryX=0.5;entryY=0;entryDx=0;entryDy=0;" edge="1" parent="1" source="eF1gSp4A3v6u9YD-OLK1-97" target="eF1gSp4A3v6u9YD-OLK1-102">
          <mxGeometry relative="1" as="geometry">
            <mxPoint x="980" y="530" as="sourcePoint" />
            <mxPoint x="1140" y="530" as="targetPoint" />
          </mxGeometry>
        </mxCell>
        <mxCell id="eF1gSp4A3v6u9YD-OLK1-105" value="" style="endArrow=none;html=1;rounded=0;exitX=0.5;exitY=1;exitDx=0;exitDy=0;entryX=0;entryY=0.5;entryDx=0;entryDy=0;" edge="1" parent="1" source="eF1gSp4A3v6u9YD-OLK1-102" target="eF1gSp4A3v6u9YD-OLK1-98">
          <mxGeometry relative="1" as="geometry">
            <mxPoint x="980" y="555" as="sourcePoint" />
            <mxPoint x="1140" y="555" as="targetPoint" />
            <Array as="points">
              <mxPoint x="625" y="555" />
            </Array>
          </mxGeometry>
        </mxCell>
        <mxCell id="eF1gSp4A3v6u9YD-OLK1-106" value="" style="endArrow=none;html=1;rounded=0;exitX=0.5;exitY=1;exitDx=0;exitDy=0;entryX=0;entryY=0.5;entryDx=0;entryDy=0;" edge="1" parent="1" source="eF1gSp4A3v6u9YD-OLK1-102" target="eF1gSp4A3v6u9YD-OLK1-99">
          <mxGeometry relative="1" as="geometry">
            <mxPoint x="980" y="555" as="sourcePoint" />
            <mxPoint x="1140" y="555" as="targetPoint" />
            <Array as="points">
              <mxPoint x="625" y="615" />
            </Array>
          </mxGeometry>
        </mxCell>
        <mxCell id="eF1gSp4A3v6u9YD-OLK1-107" value="" style="endArrow=none;html=1;rounded=0;exitX=0.5;exitY=1;exitDx=0;exitDy=0;entryX=0;entryY=0.5;entryDx=0;entryDy=0;" edge="1" parent="1" source="eF1gSp4A3v6u9YD-OLK1-103" target="eF1gSp4A3v6u9YD-OLK1-100">
          <mxGeometry relative="1" as="geometry">
            <mxPoint x="980" y="555" as="sourcePoint" />
            <mxPoint x="1140" y="555" as="targetPoint" />
            <Array as="points">
              <mxPoint x="625" y="675" />
            </Array>
          </mxGeometry>
        </mxCell>
        <mxCell id="eF1gSp4A3v6u9YD-OLK1-108" value="" style="endArrow=none;html=1;rounded=0;exitX=0.5;exitY=1;exitDx=0;exitDy=0;entryX=0;entryY=0.5;entryDx=0;entryDy=0;" edge="1" parent="1" source="eF1gSp4A3v6u9YD-OLK1-103" target="eF1gSp4A3v6u9YD-OLK1-101">
          <mxGeometry relative="1" as="geometry">
            <mxPoint x="980" y="555" as="sourcePoint" />
            <mxPoint x="1140" y="555" as="targetPoint" />
            <Array as="points">
              <mxPoint x="625" y="735" />
            </Array>
          </mxGeometry>
        </mxCell>
        <mxCell id="eF1gSp4A3v6u9YD-OLK1-103" value="U" style="text;html=1;align=center;verticalAlign=middle;resizable=0;points=[];autosize=1;strokeColor=none;fillColor=none;rotation=0;" vertex="1" parent="1">
          <mxGeometry x="610" y="490" width="30" height="30" as="geometry" />
        </mxCell>
        <mxCell id="eF1gSp4A3v6u9YD-OLK1-111" value="" style="endArrow=none;html=1;rounded=0;exitX=1;exitY=0.5;exitDx=0;exitDy=0;entryX=0;entryY=0.5;entryDx=0;entryDy=0;" edge="1" parent="1" source="eF1gSp4A3v6u9YD-OLK1-55" target="eF1gSp4A3v6u9YD-OLK1-96">
          <mxGeometry relative="1" as="geometry">
            <mxPoint x="980" y="530" as="sourcePoint" />
            <mxPoint x="1140" y="530" as="targetPoint" />
            <Array as="points">
              <mxPoint x="1190" y="80" />
            </Array>
          </mxGeometry>
        </mxCell>
        <mxCell id="eF1gSp4A3v6u9YD-OLK1-112" value="1" style="resizable=0;html=1;whiteSpace=wrap;align=right;verticalAlign=bottom;" connectable="0" vertex="1" parent="eF1gSp4A3v6u9YD-OLK1-111">
          <mxGeometry x="1" relative="1" as="geometry">
            <mxPoint as="offset" />
          </mxGeometry>
        </mxCell>
        <mxCell id="eF1gSp4A3v6u9YD-OLK1-114" value="Parts History" style="whiteSpace=wrap;html=1;align=center;" vertex="1" parent="1">
          <mxGeometry x="960" y="425" width="100" height="40" as="geometry" />
        </mxCell>
        <mxCell id="eF1gSp4A3v6u9YD-OLK1-115" value="" style="endArrow=none;html=1;rounded=0;entryX=0;entryY=0.5;entryDx=0;entryDy=0;exitX=0.5;exitY=1;exitDx=0;exitDy=0;" edge="1" parent="1" source="eF1gSp4A3v6u9YD-OLK1-91" target="eF1gSp4A3v6u9YD-OLK1-114">
          <mxGeometry relative="1" as="geometry">
            <mxPoint x="800" y="470" as="sourcePoint" />
            <mxPoint x="960" y="470" as="targetPoint" />
            <Array as="points">
              <mxPoint x="920" y="445" />
            </Array>
          </mxGeometry>
        </mxCell>
        <mxCell id="eF1gSp4A3v6u9YD-OLK1-116" value="1" style="resizable=0;html=1;whiteSpace=wrap;align=right;verticalAlign=bottom;" connectable="0" vertex="1" parent="eF1gSp4A3v6u9YD-OLK1-115">
          <mxGeometry x="1" relative="1" as="geometry" />
        </mxCell>
        <mxCell id="eF1gSp4A3v6u9YD-OLK1-117" value="" style="endArrow=none;html=1;rounded=0;exitX=1;exitY=0.5;exitDx=0;exitDy=0;entryX=0.5;entryY=1;entryDx=0;entryDy=0;" edge="1" parent="1" source="eF1gSp4A3v6u9YD-OLK1-114" target="eF1gSp4A3v6u9YD-OLK1-55">
          <mxGeometry relative="1" as="geometry">
            <mxPoint x="1090" y="449" as="sourcePoint" />
            <mxPoint x="1250" y="449" as="targetPoint" />
            <Array as="points">
              <mxPoint x="1130" y="445" />
            </Array>
          </mxGeometry>
        </mxCell>
        <mxCell id="eF1gSp4A3v6u9YD-OLK1-118" value="1" style="resizable=0;html=1;whiteSpace=wrap;align=right;verticalAlign=bottom;" connectable="0" vertex="1" parent="eF1gSp4A3v6u9YD-OLK1-117">
          <mxGeometry x="1" relative="1" as="geometry">
            <mxPoint y="20" as="offset" />
          </mxGeometry>
        </mxCell>
        <mxCell id="eF1gSp4A3v6u9YD-OLK1-119" value="" style="endArrow=none;html=1;rounded=0;exitX=0.5;exitY=1;exitDx=0;exitDy=0;entryX=0.5;entryY=0;entryDx=0;entryDy=0;" edge="1" parent="1" source="eF1gSp4A3v6u9YD-OLK1-114" target="eF1gSp4A3v6u9YD-OLK1-123">
          <mxGeometry relative="1" as="geometry">
            <mxPoint x="1240" y="500" as="sourcePoint" />
            <mxPoint x="1400" y="510" as="targetPoint" />
          </mxGeometry>
        </mxCell>
        <mxCell id="eF1gSp4A3v6u9YD-OLK1-120" value="N" style="resizable=0;html=1;whiteSpace=wrap;align=right;verticalAlign=bottom;" connectable="0" vertex="1" parent="eF1gSp4A3v6u9YD-OLK1-119">
          <mxGeometry x="1" relative="1" as="geometry" />
        </mxCell>
        <mxCell id="eF1gSp4A3v6u9YD-OLK1-123" value="Parts Order" style="whiteSpace=wrap;html=1;align=center;" vertex="1" parent="1">
          <mxGeometry x="960" y="505" width="100" height="40" as="geometry" />
        </mxCell>
        <mxCell id="eF1gSp4A3v6u9YD-OLK1-124" value="Purchase Price" style="ellipse;whiteSpace=wrap;html=1;align=center;dashed=1;" vertex="1" parent="1">
          <mxGeometry x="960" y="300" width="100" height="40" as="geometry" />
        </mxCell>
        <mxCell id="eF1gSp4A3v6u9YD-OLK1-126" value="&lt;u&gt;Purchase Order Number&lt;/u&gt;" style="ellipse;whiteSpace=wrap;html=1;align=center;" vertex="1" parent="1">
          <mxGeometry x="1050" y="655" width="100" height="40" as="geometry" />
        </mxCell>
        <mxCell id="eF1gSp4A3v6u9YD-OLK1-127" value="Phone Number" style="ellipse;whiteSpace=wrap;html=1;align=center;" vertex="1" parent="1">
          <mxGeometry x="1050" y="605" width="100" height="40" as="geometry" />
        </mxCell>
        <mxCell id="eF1gSp4A3v6u9YD-OLK1-128" value="Vendor Name" style="ellipse;whiteSpace=wrap;html=1;align=center;" vertex="1" parent="1">
          <mxGeometry x="1050.29" y="555" width="100" height="40" as="geometry" />
        </mxCell>
        <mxCell id="eF1gSp4A3v6u9YD-OLK1-129" value="" style="endArrow=none;html=1;rounded=0;exitX=0.5;exitY=1;exitDx=0;exitDy=0;entryX=0;entryY=0.5;entryDx=0;entryDy=0;" edge="1" parent="1" source="eF1gSp4A3v6u9YD-OLK1-123" target="eF1gSp4A3v6u9YD-OLK1-128">
          <mxGeometry relative="1" as="geometry">
            <mxPoint x="1000" y="545" as="sourcePoint" />
            <mxPoint x="1046" y="575" as="targetPoint" />
            <Array as="points">
              <mxPoint x="1010" y="575" />
            </Array>
          </mxGeometry>
        </mxCell>
        <mxCell id="eF1gSp4A3v6u9YD-OLK1-130" value="1" style="resizable=0;html=1;whiteSpace=wrap;align=right;verticalAlign=bottom;" connectable="0" vertex="1" parent="eF1gSp4A3v6u9YD-OLK1-129">
          <mxGeometry x="1" relative="1" as="geometry">
            <mxPoint x="4" as="offset" />
          </mxGeometry>
        </mxCell>
        <mxCell id="eF1gSp4A3v6u9YD-OLK1-133" value="" style="endArrow=none;html=1;rounded=0;entryX=0;entryY=0.5;entryDx=0;entryDy=0;" edge="1" target="eF1gSp4A3v6u9YD-OLK1-126" parent="1">
          <mxGeometry relative="1" as="geometry">
            <mxPoint x="1010" y="574.71" as="sourcePoint" />
            <mxPoint x="1170" y="574.71" as="targetPoint" />
            <Array as="points">
              <mxPoint x="1010" y="675" />
            </Array>
          </mxGeometry>
        </mxCell>
        <mxCell id="eF1gSp4A3v6u9YD-OLK1-134" value="1" style="resizable=0;html=1;whiteSpace=wrap;align=right;verticalAlign=bottom;" connectable="0" vertex="1" parent="eF1gSp4A3v6u9YD-OLK1-133">
          <mxGeometry x="1" relative="1" as="geometry" />
        </mxCell>
        <mxCell id="eF1gSp4A3v6u9YD-OLK1-135" value="" style="endArrow=none;html=1;rounded=0;entryX=0;entryY=0.5;entryDx=0;entryDy=0;" edge="1" target="eF1gSp4A3v6u9YD-OLK1-127" parent="1">
          <mxGeometry relative="1" as="geometry">
            <mxPoint x="1010" y="574.71" as="sourcePoint" />
            <mxPoint x="1170" y="574.71" as="targetPoint" />
            <Array as="points">
              <mxPoint x="1010" y="625" />
            </Array>
          </mxGeometry>
        </mxCell>
        <mxCell id="eF1gSp4A3v6u9YD-OLK1-136" value="1" style="resizable=0;html=1;whiteSpace=wrap;align=right;verticalAlign=bottom;" connectable="0" vertex="1" parent="eF1gSp4A3v6u9YD-OLK1-135">
          <mxGeometry x="1" relative="1" as="geometry" />
        </mxCell>
        <mxCell id="eF1gSp4A3v6u9YD-OLK1-140" value="Address" style="ellipse;whiteSpace=wrap;html=1;align=center;" vertex="1" parent="1">
          <mxGeometry x="960" y="800" width="100" height="40" as="geometry" />
        </mxCell>
        <mxCell id="eF1gSp4A3v6u9YD-OLK1-141" value="Postal Code" style="ellipse;whiteSpace=wrap;html=1;align=center;" vertex="1" parent="1">
          <mxGeometry x="1050.29" y="1010" width="100" height="40" as="geometry" />
        </mxCell>
        <mxCell id="eF1gSp4A3v6u9YD-OLK1-142" value="State" style="ellipse;whiteSpace=wrap;html=1;align=center;" vertex="1" parent="1">
          <mxGeometry x="1050.29" y="960" width="100" height="40" as="geometry" />
        </mxCell>
        <mxCell id="eF1gSp4A3v6u9YD-OLK1-143" value="City" style="ellipse;whiteSpace=wrap;html=1;align=center;" vertex="1" parent="1">
          <mxGeometry x="1050.29" y="910" width="100" height="40" as="geometry" />
        </mxCell>
        <mxCell id="eF1gSp4A3v6u9YD-OLK1-144" value="Street" style="ellipse;whiteSpace=wrap;html=1;align=center;" vertex="1" parent="1">
          <mxGeometry x="1050.29" y="860" width="100" height="40" as="geometry" />
        </mxCell>
        <mxCell id="eF1gSp4A3v6u9YD-OLK1-148" value="" style="endArrow=none;html=1;rounded=0;entryX=0;entryY=0.5;entryDx=0;entryDy=0;" edge="1" target="eF1gSp4A3v6u9YD-OLK1-141" parent="1">
          <mxGeometry relative="1" as="geometry">
            <mxPoint x="1010.29" y="879.71" as="sourcePoint" />
            <mxPoint x="1170.29" y="879.71" as="targetPoint" />
            <Array as="points">
              <mxPoint x="1010.29" y="1030" />
            </Array>
          </mxGeometry>
        </mxCell>
        <mxCell id="eF1gSp4A3v6u9YD-OLK1-149" value="1" style="resizable=0;html=1;whiteSpace=wrap;align=right;verticalAlign=bottom;" connectable="0" vertex="1" parent="eF1gSp4A3v6u9YD-OLK1-148">
          <mxGeometry x="1" relative="1" as="geometry" />
        </mxCell>
        <mxCell id="eF1gSp4A3v6u9YD-OLK1-150" value="" style="endArrow=none;html=1;rounded=0;entryX=0;entryY=0.5;entryDx=0;entryDy=0;" edge="1" target="eF1gSp4A3v6u9YD-OLK1-142" parent="1">
          <mxGeometry relative="1" as="geometry">
            <mxPoint x="1010.29" y="879.71" as="sourcePoint" />
            <mxPoint x="1170.29" y="879.71" as="targetPoint" />
            <Array as="points">
              <mxPoint x="1010.29" y="980" />
            </Array>
          </mxGeometry>
        </mxCell>
        <mxCell id="eF1gSp4A3v6u9YD-OLK1-151" value="1" style="resizable=0;html=1;whiteSpace=wrap;align=right;verticalAlign=bottom;" connectable="0" vertex="1" parent="eF1gSp4A3v6u9YD-OLK1-150">
          <mxGeometry x="1" relative="1" as="geometry" />
        </mxCell>
        <mxCell id="eF1gSp4A3v6u9YD-OLK1-152" value="" style="endArrow=none;html=1;rounded=0;entryX=0;entryY=0.5;entryDx=0;entryDy=0;exitX=0.5;exitY=1;exitDx=0;exitDy=0;" edge="1" target="eF1gSp4A3v6u9YD-OLK1-143" parent="1" source="eF1gSp4A3v6u9YD-OLK1-140">
          <mxGeometry relative="1" as="geometry">
            <mxPoint x="1010.29" y="879.71" as="sourcePoint" />
            <mxPoint x="1170.29" y="879.71" as="targetPoint" />
            <Array as="points">
              <mxPoint x="1010.29" y="930" />
            </Array>
          </mxGeometry>
        </mxCell>
        <mxCell id="eF1gSp4A3v6u9YD-OLK1-153" value="1" style="resizable=0;html=1;whiteSpace=wrap;align=right;verticalAlign=bottom;" connectable="0" vertex="1" parent="eF1gSp4A3v6u9YD-OLK1-152">
          <mxGeometry x="1" relative="1" as="geometry" />
        </mxCell>
        <mxCell id="eF1gSp4A3v6u9YD-OLK1-155" value="(Combination of Vin and sequence number) -&amp;gt;" style="text;html=1;align=center;verticalAlign=middle;resizable=0;points=[];autosize=1;strokeColor=none;fillColor=none;" vertex="1" parent="1">
          <mxGeometry x="740" y="655" width="280" height="30" as="geometry" />
        </mxCell>
        <mxCell id="eF1gSp4A3v6u9YD-OLK1-156" value="Part" style="whiteSpace=wrap;html=1;align=center;" vertex="1" parent="1">
          <mxGeometry x="830" y="700" width="100" height="40" as="geometry" />
        </mxCell>
        <mxCell id="eF1gSp4A3v6u9YD-OLK1-157" value="" style="endArrow=none;html=1;rounded=0;exitX=0.5;exitY=1;exitDx=0;exitDy=0;entryX=1;entryY=0.5;entryDx=0;entryDy=0;" edge="1" parent="1" source="eF1gSp4A3v6u9YD-OLK1-123" target="eF1gSp4A3v6u9YD-OLK1-156">
          <mxGeometry relative="1" as="geometry">
            <mxPoint x="959" y="695" as="sourcePoint" />
            <mxPoint x="959" y="735" as="targetPoint" />
            <Array as="points">
              <mxPoint x="1010" y="720" />
            </Array>
          </mxGeometry>
        </mxCell>
        <mxCell id="eF1gSp4A3v6u9YD-OLK1-158" value="N" style="resizable=0;html=1;whiteSpace=wrap;align=right;verticalAlign=bottom;" connectable="0" vertex="1" parent="eF1gSp4A3v6u9YD-OLK1-157">
          <mxGeometry x="1" relative="1" as="geometry">
            <mxPoint x="20" as="offset" />
          </mxGeometry>
        </mxCell>
        <mxCell id="eF1gSp4A3v6u9YD-OLK1-159" value="Part Number" style="ellipse;whiteSpace=wrap;html=1;align=center;" vertex="1" parent="1">
          <mxGeometry x="750.29" y="910" width="100" height="40" as="geometry" />
        </mxCell>
        <mxCell id="eF1gSp4A3v6u9YD-OLK1-160" value="Description" style="ellipse;whiteSpace=wrap;html=1;align=center;" vertex="1" parent="1">
          <mxGeometry x="750.29" y="860" width="100" height="40" as="geometry" />
        </mxCell>
        <mxCell id="eF1gSp4A3v6u9YD-OLK1-162" value="Part Quantity" style="ellipse;whiteSpace=wrap;html=1;align=center;" vertex="1" parent="1">
          <mxGeometry x="750.29" y="760" width="100" height="40" as="geometry" />
        </mxCell>
        <mxCell id="eF1gSp4A3v6u9YD-OLK1-164" value="Status" style="whiteSpace=wrap;html=1;align=center;" vertex="1" parent="1">
          <mxGeometry x="750" y="810" width="100" height="40" as="geometry" />
        </mxCell>
        <mxCell id="eF1gSp4A3v6u9YD-OLK1-165" value="Ordered" style="whiteSpace=wrap;html=1;align=center;" vertex="1" parent="1">
          <mxGeometry x="555" y="905" width="100" height="40" as="geometry" />
        </mxCell>
        <mxCell id="eF1gSp4A3v6u9YD-OLK1-166" value="Recieved" style="whiteSpace=wrap;html=1;align=center;" vertex="1" parent="1">
          <mxGeometry x="555" y="965" width="100" height="40" as="geometry" />
        </mxCell>
        <mxCell id="eF1gSp4A3v6u9YD-OLK1-167" value="Installed" style="whiteSpace=wrap;html=1;align=center;" vertex="1" parent="1">
          <mxGeometry x="555" y="1025" width="100" height="40" as="geometry" />
        </mxCell>
        <mxCell id="eF1gSp4A3v6u9YD-OLK1-169" value="d" style="ellipse;whiteSpace=wrap;html=1;aspect=fixed;" vertex="1" parent="1">
          <mxGeometry x="525" y="815" width="30" height="30" as="geometry" />
        </mxCell>
        <mxCell id="eF1gSp4A3v6u9YD-OLK1-170" value="" style="endArrow=none;html=1;rounded=0;exitX=0.5;exitY=1;exitDx=0;exitDy=0;entryX=0;entryY=0.5;entryDx=0;entryDy=0;" edge="1" source="eF1gSp4A3v6u9YD-OLK1-169" target="eF1gSp4A3v6u9YD-OLK1-165" parent="1">
          <mxGeometry relative="1" as="geometry">
            <mxPoint x="895" y="925" as="sourcePoint" />
            <mxPoint x="1055" y="925" as="targetPoint" />
            <Array as="points">
              <mxPoint x="540" y="925" />
            </Array>
          </mxGeometry>
        </mxCell>
        <mxCell id="eF1gSp4A3v6u9YD-OLK1-171" value="" style="endArrow=none;html=1;rounded=0;exitX=0.5;exitY=1;exitDx=0;exitDy=0;entryX=0;entryY=0.5;entryDx=0;entryDy=0;" edge="1" source="eF1gSp4A3v6u9YD-OLK1-169" target="eF1gSp4A3v6u9YD-OLK1-166" parent="1">
          <mxGeometry relative="1" as="geometry">
            <mxPoint x="895" y="925" as="sourcePoint" />
            <mxPoint x="1055" y="925" as="targetPoint" />
            <Array as="points">
              <mxPoint x="540" y="985" />
            </Array>
          </mxGeometry>
        </mxCell>
        <mxCell id="eF1gSp4A3v6u9YD-OLK1-172" value="" style="endArrow=none;html=1;rounded=0;exitX=0.5;exitY=1;exitDx=0;exitDy=0;entryX=0;entryY=0.5;entryDx=0;entryDy=0;" edge="1" source="eF1gSp4A3v6u9YD-OLK1-174" target="eF1gSp4A3v6u9YD-OLK1-167" parent="1">
          <mxGeometry relative="1" as="geometry">
            <mxPoint x="895" y="925" as="sourcePoint" />
            <mxPoint x="1055" y="925" as="targetPoint" />
            <Array as="points">
              <mxPoint x="540" y="1045" />
            </Array>
          </mxGeometry>
        </mxCell>
        <mxCell id="eF1gSp4A3v6u9YD-OLK1-174" value="U" style="text;html=1;align=center;verticalAlign=middle;resizable=0;points=[];autosize=1;strokeColor=none;fillColor=none;rotation=0;" vertex="1" parent="1">
          <mxGeometry x="525" y="860" width="30" height="30" as="geometry" />
        </mxCell>
        <mxCell id="eF1gSp4A3v6u9YD-OLK1-175" value="" style="endArrow=none;html=1;rounded=0;exitX=0;exitY=0.5;exitDx=0;exitDy=0;entryX=1;entryY=0.5;entryDx=0;entryDy=0;" edge="1" parent="1" source="eF1gSp4A3v6u9YD-OLK1-164" target="eF1gSp4A3v6u9YD-OLK1-169">
          <mxGeometry relative="1" as="geometry">
            <mxPoint x="639" y="800" as="sourcePoint" />
            <mxPoint x="639" y="850" as="targetPoint" />
          </mxGeometry>
        </mxCell>
        <mxCell id="eF1gSp4A3v6u9YD-OLK1-176" value="Cost Per Part" style="ellipse;whiteSpace=wrap;html=1;align=center;" vertex="1" parent="1">
          <mxGeometry x="750.29" y="970" width="100" height="40" as="geometry" />
        </mxCell>
        <mxCell id="eF1gSp4A3v6u9YD-OLK1-177" value="Total Part Cost" style="ellipse;whiteSpace=wrap;html=1;align=center;" vertex="1" parent="1">
          <mxGeometry x="1050" y="730" width="100" height="40" as="geometry" />
        </mxCell>
        <mxCell id="eF1gSp4A3v6u9YD-OLK1-178" value="" style="endArrow=none;html=1;rounded=0;entryX=0;entryY=0.5;entryDx=0;entryDy=0;" edge="1" parent="1" target="eF1gSp4A3v6u9YD-OLK1-177">
          <mxGeometry relative="1" as="geometry">
            <mxPoint x="1010.29" y="655" as="sourcePoint" />
            <mxPoint x="1050.29" y="755.29" as="targetPoint" />
            <Array as="points">
              <mxPoint x="1010" y="750" />
            </Array>
          </mxGeometry>
        </mxCell>
        <mxCell id="eF1gSp4A3v6u9YD-OLK1-179" value="1" style="resizable=0;html=1;whiteSpace=wrap;align=right;verticalAlign=bottom;" connectable="0" vertex="1" parent="eF1gSp4A3v6u9YD-OLK1-178">
          <mxGeometry x="1" relative="1" as="geometry" />
        </mxCell>
        <mxCell id="eF1gSp4A3v6u9YD-OLK1-180" value="" style="endArrow=none;html=1;rounded=0;exitX=0.5;exitY=1;exitDx=0;exitDy=0;entryX=1;entryY=0.5;entryDx=0;entryDy=0;" edge="1" parent="1" source="eF1gSp4A3v6u9YD-OLK1-156" target="eF1gSp4A3v6u9YD-OLK1-176">
          <mxGeometry relative="1" as="geometry">
            <mxPoint x="1030" y="730" as="sourcePoint" />
            <mxPoint x="1190" y="730" as="targetPoint" />
            <Array as="points">
              <mxPoint x="880" y="990" />
            </Array>
          </mxGeometry>
        </mxCell>
        <mxCell id="eF1gSp4A3v6u9YD-OLK1-181" value="1" style="resizable=0;html=1;whiteSpace=wrap;align=right;verticalAlign=bottom;" connectable="0" vertex="1" parent="eF1gSp4A3v6u9YD-OLK1-180">
          <mxGeometry x="1" relative="1" as="geometry">
            <mxPoint x="10" as="offset" />
          </mxGeometry>
        </mxCell>
        <mxCell id="eF1gSp4A3v6u9YD-OLK1-182" value="" style="endArrow=none;html=1;rounded=0;exitX=0.5;exitY=1;exitDx=0;exitDy=0;entryX=1;entryY=0.5;entryDx=0;entryDy=0;" edge="1" parent="1" source="eF1gSp4A3v6u9YD-OLK1-156" target="eF1gSp4A3v6u9YD-OLK1-159">
          <mxGeometry relative="1" as="geometry">
            <mxPoint x="1030" y="730" as="sourcePoint" />
            <mxPoint x="1190" y="730" as="targetPoint" />
            <Array as="points">
              <mxPoint x="880" y="930" />
            </Array>
          </mxGeometry>
        </mxCell>
        <mxCell id="eF1gSp4A3v6u9YD-OLK1-183" value="1" style="resizable=0;html=1;whiteSpace=wrap;align=right;verticalAlign=bottom;" connectable="0" vertex="1" parent="eF1gSp4A3v6u9YD-OLK1-182">
          <mxGeometry x="1" relative="1" as="geometry">
            <mxPoint x="10" as="offset" />
          </mxGeometry>
        </mxCell>
        <mxCell id="eF1gSp4A3v6u9YD-OLK1-184" value="" style="endArrow=none;html=1;rounded=0;exitX=0.5;exitY=1;exitDx=0;exitDy=0;entryX=1;entryY=0.5;entryDx=0;entryDy=0;" edge="1" parent="1" source="eF1gSp4A3v6u9YD-OLK1-156" target="eF1gSp4A3v6u9YD-OLK1-160">
          <mxGeometry relative="1" as="geometry">
            <mxPoint x="1030" y="730" as="sourcePoint" />
            <mxPoint x="1190" y="730" as="targetPoint" />
            <Array as="points">
              <mxPoint x="880" y="880" />
            </Array>
          </mxGeometry>
        </mxCell>
        <mxCell id="eF1gSp4A3v6u9YD-OLK1-185" value="1" style="resizable=0;html=1;whiteSpace=wrap;align=right;verticalAlign=bottom;" connectable="0" vertex="1" parent="eF1gSp4A3v6u9YD-OLK1-184">
          <mxGeometry x="1" relative="1" as="geometry">
            <mxPoint x="10" as="offset" />
          </mxGeometry>
        </mxCell>
        <mxCell id="eF1gSp4A3v6u9YD-OLK1-186" value="" style="endArrow=none;html=1;rounded=0;exitX=0.5;exitY=1;exitDx=0;exitDy=0;entryX=1;entryY=0.5;entryDx=0;entryDy=0;" edge="1" parent="1" source="eF1gSp4A3v6u9YD-OLK1-156" target="eF1gSp4A3v6u9YD-OLK1-164">
          <mxGeometry relative="1" as="geometry">
            <mxPoint x="1030" y="730" as="sourcePoint" />
            <mxPoint x="1190" y="730" as="targetPoint" />
            <Array as="points">
              <mxPoint x="880" y="830" />
            </Array>
          </mxGeometry>
        </mxCell>
        <mxCell id="eF1gSp4A3v6u9YD-OLK1-187" value="1" style="resizable=0;html=1;whiteSpace=wrap;align=right;verticalAlign=bottom;" connectable="0" vertex="1" parent="eF1gSp4A3v6u9YD-OLK1-186">
          <mxGeometry x="1" relative="1" as="geometry">
            <mxPoint x="10" as="offset" />
          </mxGeometry>
        </mxCell>
        <mxCell id="eF1gSp4A3v6u9YD-OLK1-188" value="" style="endArrow=none;html=1;rounded=0;exitX=0.5;exitY=1;exitDx=0;exitDy=0;entryX=1;entryY=0.5;entryDx=0;entryDy=0;" edge="1" parent="1" source="eF1gSp4A3v6u9YD-OLK1-156" target="eF1gSp4A3v6u9YD-OLK1-162">
          <mxGeometry relative="1" as="geometry">
            <mxPoint x="1030" y="730" as="sourcePoint" />
            <mxPoint x="1190" y="730" as="targetPoint" />
            <Array as="points">
              <mxPoint x="880" y="780" />
            </Array>
          </mxGeometry>
        </mxCell>
        <mxCell id="eF1gSp4A3v6u9YD-OLK1-189" value="1" style="resizable=0;html=1;whiteSpace=wrap;align=right;verticalAlign=bottom;" connectable="0" vertex="1" parent="eF1gSp4A3v6u9YD-OLK1-188">
          <mxGeometry x="1" relative="1" as="geometry">
            <mxPoint x="10" as="offset" />
          </mxGeometry>
        </mxCell>
        <mxCell id="eF1gSp4A3v6u9YD-OLK1-190" value="" style="endArrow=none;html=1;rounded=0;exitX=0.5;exitY=1;exitDx=0;exitDy=0;entryX=0;entryY=0.5;entryDx=0;entryDy=0;" edge="1" parent="1" source="eF1gSp4A3v6u9YD-OLK1-140" target="eF1gSp4A3v6u9YD-OLK1-144">
          <mxGeometry relative="1" as="geometry">
            <mxPoint x="1090" y="780" as="sourcePoint" />
            <mxPoint x="1250" y="780" as="targetPoint" />
            <Array as="points">
              <mxPoint x="1010" y="880" />
            </Array>
          </mxGeometry>
        </mxCell>
        <mxCell id="eF1gSp4A3v6u9YD-OLK1-191" value="1" style="resizable=0;html=1;whiteSpace=wrap;align=right;verticalAlign=bottom;" connectable="0" vertex="1" parent="eF1gSp4A3v6u9YD-OLK1-190">
          <mxGeometry x="1" relative="1" as="geometry" />
        </mxCell>
        <mxCell id="eF1gSp4A3v6u9YD-OLK1-192" value="" style="endArrow=none;html=1;rounded=0;exitX=0.5;exitY=1;exitDx=0;exitDy=0;" edge="1" parent="1" source="eF1gSp4A3v6u9YD-OLK1-123" target="eF1gSp4A3v6u9YD-OLK1-140">
          <mxGeometry relative="1" as="geometry">
            <mxPoint x="1090" y="780" as="sourcePoint" />
            <mxPoint x="1250" y="780" as="targetPoint" />
          </mxGeometry>
        </mxCell>
        <mxCell id="eF1gSp4A3v6u9YD-OLK1-193" value="1" style="resizable=0;html=1;whiteSpace=wrap;align=right;verticalAlign=bottom;" connectable="0" vertex="1" parent="eF1gSp4A3v6u9YD-OLK1-192">
          <mxGeometry x="1" relative="1" as="geometry" />
        </mxCell>
        <mxCell id="eF1gSp4A3v6u9YD-OLK1-194" value="&lt;b&gt;&lt;u&gt;VIN&lt;/u&gt;&lt;/b&gt;" style="ellipse;whiteSpace=wrap;html=1;align=center;" vertex="1" parent="1">
          <mxGeometry x="1300" y="110" width="100" height="40" as="geometry" />
        </mxCell>
        <mxCell id="eF1gSp4A3v6u9YD-OLK1-195" value="" style="endArrow=none;html=1;rounded=0;" edge="1" parent="1" source="eF1gSp4A3v6u9YD-OLK1-96" target="eF1gSp4A3v6u9YD-OLK1-207">
          <mxGeometry relative="1" as="geometry">
            <mxPoint x="1260.1599999999999" y="160" as="sourcePoint" />
            <mxPoint x="1300.0000000000005" y="190" as="targetPoint" />
            <Array as="points">
              <mxPoint x="1260" y="190" />
            </Array>
          </mxGeometry>
        </mxCell>
        <mxCell id="eF1gSp4A3v6u9YD-OLK1-196" value="1" style="resizable=0;html=1;whiteSpace=wrap;align=right;verticalAlign=bottom;" connectable="0" vertex="1" parent="eF1gSp4A3v6u9YD-OLK1-195">
          <mxGeometry x="1" relative="1" as="geometry" />
        </mxCell>
        <mxCell id="eF1gSp4A3v6u9YD-OLK1-201" value="d" style="ellipse;whiteSpace=wrap;html=1;aspect=fixed;" vertex="1" parent="1">
          <mxGeometry x="1420" y="175" width="30" height="30" as="geometry" />
        </mxCell>
        <mxCell id="eF1gSp4A3v6u9YD-OLK1-202" value="" style="endArrow=none;html=1;rounded=0;exitX=1;exitY=0.5;exitDx=0;exitDy=0;entryX=0;entryY=0.5;entryDx=0;entryDy=0;" edge="1" source="eF1gSp4A3v6u9YD-OLK1-201" target="eF1gSp4A3v6u9YD-OLK1-219" parent="1">
          <mxGeometry relative="1" as="geometry">
            <mxPoint x="1890" y="155" as="sourcePoint" />
            <mxPoint x="1550" y="155" as="targetPoint" />
            <Array as="points" />
          </mxGeometry>
        </mxCell>
        <mxCell id="eF1gSp4A3v6u9YD-OLK1-206" value="U" style="text;html=1;align=center;verticalAlign=middle;resizable=0;points=[];autosize=1;strokeColor=none;fillColor=none;rotation=-90;" vertex="1" parent="1">
          <mxGeometry x="1450" y="170" width="30" height="30" as="geometry" />
        </mxCell>
        <mxCell id="eF1gSp4A3v6u9YD-OLK1-207" value="Car Type" style="whiteSpace=wrap;html=1;align=center;" vertex="1" parent="1">
          <mxGeometry x="1300" y="170" width="100" height="40" as="geometry" />
        </mxCell>
        <mxCell id="eF1gSp4A3v6u9YD-OLK1-219" value="Type" style="ellipse;shape=doubleEllipse;margin=3;whiteSpace=wrap;html=1;align=center;" vertex="1" parent="1">
          <mxGeometry x="1490" y="170" width="100" height="40" as="geometry" />
        </mxCell>
        <mxCell id="eF1gSp4A3v6u9YD-OLK1-220" value="" style="endArrow=none;html=1;rounded=0;exitX=1;exitY=0.5;exitDx=0;exitDy=0;entryX=0;entryY=0.5;entryDx=0;entryDy=0;" edge="1" parent="1" source="eF1gSp4A3v6u9YD-OLK1-207" target="eF1gSp4A3v6u9YD-OLK1-201">
          <mxGeometry relative="1" as="geometry">
            <mxPoint x="1440" y="239.43" as="sourcePoint" />
            <mxPoint x="1540" y="239.43" as="targetPoint" />
            <Array as="points" />
          </mxGeometry>
        </mxCell>
        <mxCell id="eF1gSp4A3v6u9YD-OLK1-221" value="" style="endArrow=none;html=1;rounded=0;" edge="1" parent="1" source="eF1gSp4A3v6u9YD-OLK1-96" target="eF1gSp4A3v6u9YD-OLK1-194">
          <mxGeometry relative="1" as="geometry">
            <mxPoint x="1260" y="100" as="sourcePoint" />
            <mxPoint x="1300" y="130" as="targetPoint" />
            <Array as="points">
              <mxPoint x="1260" y="130" />
            </Array>
          </mxGeometry>
        </mxCell>
        <mxCell id="eF1gSp4A3v6u9YD-OLK1-222" value="1" style="resizable=0;html=1;whiteSpace=wrap;align=right;verticalAlign=bottom;" connectable="0" vertex="1" parent="eF1gSp4A3v6u9YD-OLK1-221">
          <mxGeometry x="1" relative="1" as="geometry" />
        </mxCell>
        <mxCell id="eF1gSp4A3v6u9YD-OLK1-223" value="d" style="ellipse;whiteSpace=wrap;html=1;aspect=fixed;" vertex="1" parent="1">
          <mxGeometry x="1420" y="235" width="30" height="30" as="geometry" />
        </mxCell>
        <mxCell id="eF1gSp4A3v6u9YD-OLK1-224" value="" style="endArrow=none;html=1;rounded=0;exitX=1;exitY=0.5;exitDx=0;exitDy=0;entryX=0;entryY=0.5;entryDx=0;entryDy=0;" edge="1" source="eF1gSp4A3v6u9YD-OLK1-223" target="eF1gSp4A3v6u9YD-OLK1-227" parent="1">
          <mxGeometry relative="1" as="geometry">
            <mxPoint x="1890" y="215" as="sourcePoint" />
            <mxPoint x="1550" y="215" as="targetPoint" />
            <Array as="points" />
          </mxGeometry>
        </mxCell>
        <mxCell id="eF1gSp4A3v6u9YD-OLK1-225" value="U" style="text;html=1;align=center;verticalAlign=middle;resizable=0;points=[];autosize=1;strokeColor=none;fillColor=none;rotation=-90;" vertex="1" parent="1">
          <mxGeometry x="1450" y="230" width="30" height="30" as="geometry" />
        </mxCell>
        <mxCell id="eF1gSp4A3v6u9YD-OLK1-226" value="Car Manufacturer" style="whiteSpace=wrap;html=1;align=center;" vertex="1" parent="1">
          <mxGeometry x="1300" y="230" width="100" height="40" as="geometry" />
        </mxCell>
        <mxCell id="eF1gSp4A3v6u9YD-OLK1-227" value="Manufacturer" style="ellipse;shape=doubleEllipse;margin=3;whiteSpace=wrap;html=1;align=center;" vertex="1" parent="1">
          <mxGeometry x="1490" y="230" width="100" height="40" as="geometry" />
        </mxCell>
        <mxCell id="eF1gSp4A3v6u9YD-OLK1-228" value="" style="endArrow=none;html=1;rounded=0;exitX=1;exitY=0.5;exitDx=0;exitDy=0;entryX=0;entryY=0.5;entryDx=0;entryDy=0;" edge="1" source="eF1gSp4A3v6u9YD-OLK1-226" target="eF1gSp4A3v6u9YD-OLK1-223" parent="1">
          <mxGeometry relative="1" as="geometry">
            <mxPoint x="1440" y="299.43" as="sourcePoint" />
            <mxPoint x="1540" y="299.43" as="targetPoint" />
            <Array as="points" />
          </mxGeometry>
        </mxCell>
        <mxCell id="eF1gSp4A3v6u9YD-OLK1-229" value="" style="endArrow=none;html=1;rounded=0;" edge="1" parent="1" source="eF1gSp4A3v6u9YD-OLK1-96" target="eF1gSp4A3v6u9YD-OLK1-226">
          <mxGeometry relative="1" as="geometry">
            <mxPoint x="1260" y="160" as="sourcePoint" />
            <mxPoint x="1300" y="250" as="targetPoint" />
            <Array as="points">
              <mxPoint x="1260" y="250" />
            </Array>
          </mxGeometry>
        </mxCell>
        <mxCell id="eF1gSp4A3v6u9YD-OLK1-230" value="1" style="resizable=0;html=1;whiteSpace=wrap;align=right;verticalAlign=bottom;" connectable="0" vertex="1" parent="eF1gSp4A3v6u9YD-OLK1-229">
          <mxGeometry x="1" relative="1" as="geometry" />
        </mxCell>
        <mxCell id="eF1gSp4A3v6u9YD-OLK1-231" value="Model Name" style="ellipse;whiteSpace=wrap;html=1;align=center;" vertex="1" parent="1">
          <mxGeometry x="1300" y="290" width="100" height="40" as="geometry" />
        </mxCell>
        <mxCell id="eF1gSp4A3v6u9YD-OLK1-232" value="Model Year ( &amp;lt; current_yr + 1)" style="ellipse;whiteSpace=wrap;html=1;align=center;" vertex="1" parent="1">
          <mxGeometry x="1300" y="350" width="100" height="40" as="geometry" />
        </mxCell>
        <mxCell id="eF1gSp4A3v6u9YD-OLK1-233" value="Condition" style="whiteSpace=wrap;html=1;align=center;" vertex="1" parent="1">
          <mxGeometry x="1300" y="403" width="100" height="40" as="geometry" />
        </mxCell>
        <mxCell id="eF1gSp4A3v6u9YD-OLK1-234" value="Gas" style="whiteSpace=wrap;html=1;align=center;" vertex="1" parent="1">
          <mxGeometry x="1690" y="305" width="100" height="40" as="geometry" />
        </mxCell>
        <mxCell id="eF1gSp4A3v6u9YD-OLK1-235" value="Diesel" style="whiteSpace=wrap;html=1;align=center;" vertex="1" parent="1">
          <mxGeometry x="1690" y="365" width="100" height="40" as="geometry" />
        </mxCell>
        <mxCell id="eF1gSp4A3v6u9YD-OLK1-236" value="Natural Gas" style="whiteSpace=wrap;html=1;align=center;" vertex="1" parent="1">
          <mxGeometry x="1690" y="425" width="100" height="40" as="geometry" />
        </mxCell>
        <mxCell id="eF1gSp4A3v6u9YD-OLK1-237" value="Hybrid" style="whiteSpace=wrap;html=1;align=center;" vertex="1" parent="1">
          <mxGeometry x="1690" y="485" width="100" height="40" as="geometry" />
        </mxCell>
        <mxCell id="eF1gSp4A3v6u9YD-OLK1-238" value="d" style="ellipse;whiteSpace=wrap;html=1;aspect=fixed;" vertex="1" parent="1">
          <mxGeometry x="1430" y="408" width="30" height="30" as="geometry" />
        </mxCell>
        <mxCell id="eF1gSp4A3v6u9YD-OLK1-239" value="" style="endArrow=none;html=1;rounded=0;" edge="1" source="eF1gSp4A3v6u9YD-OLK1-233" target="eF1gSp4A3v6u9YD-OLK1-238" parent="1">
          <mxGeometry relative="1" as="geometry">
            <mxPoint x="1400" y="423" as="sourcePoint" />
            <mxPoint x="1865" y="573" as="targetPoint" />
          </mxGeometry>
        </mxCell>
        <mxCell id="eF1gSp4A3v6u9YD-OLK1-240" value="" style="endArrow=none;html=1;rounded=0;exitX=1;exitY=0.5;exitDx=0;exitDy=0;entryX=0;entryY=0.5;entryDx=0;entryDy=0;" edge="1" source="eF1gSp4A3v6u9YD-OLK1-238" target="eF1gSp4A3v6u9YD-OLK1-234" parent="1">
          <mxGeometry relative="1" as="geometry">
            <mxPoint x="1705" y="598" as="sourcePoint" />
            <mxPoint x="1865" y="598" as="targetPoint" />
            <Array as="points">
              <mxPoint x="1640" y="423" />
              <mxPoint x="1640" y="325" />
            </Array>
          </mxGeometry>
        </mxCell>
        <mxCell id="eF1gSp4A3v6u9YD-OLK1-241" value="" style="endArrow=none;html=1;rounded=0;entryX=0;entryY=0.5;entryDx=0;entryDy=0;exitX=1;exitY=0.5;exitDx=0;exitDy=0;" edge="1" source="eF1gSp4A3v6u9YD-OLK1-238" target="eF1gSp4A3v6u9YD-OLK1-235" parent="1">
          <mxGeometry relative="1" as="geometry">
            <mxPoint x="1705" y="598" as="sourcePoint" />
            <mxPoint x="1865" y="598" as="targetPoint" />
            <Array as="points">
              <mxPoint x="1640" y="423" />
              <mxPoint x="1640" y="385" />
            </Array>
          </mxGeometry>
        </mxCell>
        <mxCell id="eF1gSp4A3v6u9YD-OLK1-242" value="" style="endArrow=none;html=1;rounded=0;entryX=0;entryY=0.5;entryDx=0;entryDy=0;exitX=1;exitY=0.5;exitDx=0;exitDy=0;" edge="1" source="eF1gSp4A3v6u9YD-OLK1-238" target="eF1gSp4A3v6u9YD-OLK1-236" parent="1">
          <mxGeometry relative="1" as="geometry">
            <mxPoint x="1960" y="325" as="sourcePoint" />
            <mxPoint x="2120" y="325" as="targetPoint" />
            <Array as="points">
              <mxPoint x="1640" y="423" />
              <mxPoint x="1640" y="445" />
            </Array>
          </mxGeometry>
        </mxCell>
        <mxCell id="eF1gSp4A3v6u9YD-OLK1-243" value="" style="endArrow=none;html=1;rounded=0;exitX=1;exitY=0.5;exitDx=0;exitDy=0;entryX=0;entryY=0.5;entryDx=0;entryDy=0;" edge="1" source="eF1gSp4A3v6u9YD-OLK1-238" target="eF1gSp4A3v6u9YD-OLK1-237" parent="1">
          <mxGeometry relative="1" as="geometry">
            <mxPoint x="1960" y="325" as="sourcePoint" />
            <mxPoint x="2120" y="325" as="targetPoint" />
            <Array as="points">
              <mxPoint x="1640" y="423" />
              <mxPoint x="1640" y="505" />
            </Array>
          </mxGeometry>
        </mxCell>
        <mxCell id="eF1gSp4A3v6u9YD-OLK1-244" value="U" style="text;html=1;align=center;verticalAlign=middle;resizable=0;points=[];autosize=1;strokeColor=none;fillColor=none;rotation=-90;" vertex="1" parent="1">
          <mxGeometry x="1450" y="403" width="30" height="30" as="geometry" />
        </mxCell>
        <mxCell id="eF1gSp4A3v6u9YD-OLK1-245" value="Plugin Hybrid" style="whiteSpace=wrap;html=1;align=center;" vertex="1" parent="1">
          <mxGeometry x="1690" y="545" width="100" height="40" as="geometry" />
        </mxCell>
        <mxCell id="eF1gSp4A3v6u9YD-OLK1-246" value="Battery" style="whiteSpace=wrap;html=1;align=center;" vertex="1" parent="1">
          <mxGeometry x="1690" y="600" width="100" height="40" as="geometry" />
        </mxCell>
        <mxCell id="eF1gSp4A3v6u9YD-OLK1-247" value="Fuel Cell" style="whiteSpace=wrap;html=1;align=center;" vertex="1" parent="1">
          <mxGeometry x="1690" y="660" width="100" height="40" as="geometry" />
        </mxCell>
        <mxCell id="eF1gSp4A3v6u9YD-OLK1-248" value="" style="endArrow=none;html=1;rounded=0;exitX=1;exitY=0.5;exitDx=0;exitDy=0;" edge="1" parent="1" source="eF1gSp4A3v6u9YD-OLK1-238" target="eF1gSp4A3v6u9YD-OLK1-245">
          <mxGeometry relative="1" as="geometry">
            <mxPoint x="1460" y="484" as="sourcePoint" />
            <mxPoint x="1620" y="566" as="targetPoint" />
            <Array as="points">
              <mxPoint x="1640" y="423" />
              <mxPoint x="1640" y="565" />
            </Array>
          </mxGeometry>
        </mxCell>
        <mxCell id="eF1gSp4A3v6u9YD-OLK1-249" value="" style="endArrow=none;html=1;rounded=0;exitX=1;exitY=0.5;exitDx=0;exitDy=0;entryX=0;entryY=0.5;entryDx=0;entryDy=0;" edge="1" parent="1" source="eF1gSp4A3v6u9YD-OLK1-238" target="eF1gSp4A3v6u9YD-OLK1-246">
          <mxGeometry relative="1" as="geometry">
            <mxPoint x="1460" y="535" as="sourcePoint" />
            <mxPoint x="1620" y="617" as="targetPoint" />
            <Array as="points">
              <mxPoint x="1640" y="423" />
              <mxPoint x="1640" y="620" />
            </Array>
          </mxGeometry>
        </mxCell>
        <mxCell id="eF1gSp4A3v6u9YD-OLK1-250" value="" style="endArrow=none;html=1;rounded=0;exitX=1;exitY=0.5;exitDx=0;exitDy=0;" edge="1" parent="1" source="eF1gSp4A3v6u9YD-OLK1-238" target="eF1gSp4A3v6u9YD-OLK1-247">
          <mxGeometry relative="1" as="geometry">
            <mxPoint x="1460" y="598" as="sourcePoint" />
            <mxPoint x="1620" y="680" as="targetPoint" />
            <Array as="points">
              <mxPoint x="1640" y="423" />
              <mxPoint x="1640" y="680" />
            </Array>
          </mxGeometry>
        </mxCell>
        <mxCell id="eF1gSp4A3v6u9YD-OLK1-251" value="O" style="ellipse;whiteSpace=wrap;html=1;aspect=fixed;" vertex="1" parent="1">
          <mxGeometry x="1420" y="485" width="30" height="30" as="geometry" />
        </mxCell>
        <mxCell id="eF1gSp4A3v6u9YD-OLK1-252" value="" style="endArrow=none;html=1;rounded=0;exitX=1;exitY=0.5;exitDx=0;exitDy=0;entryX=0;entryY=0.5;entryDx=0;entryDy=0;" edge="1" source="eF1gSp4A3v6u9YD-OLK1-251" target="eF1gSp4A3v6u9YD-OLK1-255" parent="1">
          <mxGeometry relative="1" as="geometry">
            <mxPoint x="1890" y="465" as="sourcePoint" />
            <mxPoint x="1550" y="465" as="targetPoint" />
            <Array as="points" />
          </mxGeometry>
        </mxCell>
        <mxCell id="eF1gSp4A3v6u9YD-OLK1-253" value="U" style="text;html=1;align=center;verticalAlign=middle;resizable=0;points=[];autosize=1;strokeColor=none;fillColor=none;rotation=-90;" vertex="1" parent="1">
          <mxGeometry x="1450" y="480" width="30" height="30" as="geometry" />
        </mxCell>
        <mxCell id="eF1gSp4A3v6u9YD-OLK1-254" value="Color" style="whiteSpace=wrap;html=1;align=center;" vertex="1" parent="1">
          <mxGeometry x="1300" y="480" width="100" height="40" as="geometry" />
        </mxCell>
        <mxCell id="eF1gSp4A3v6u9YD-OLK1-255" value="Colors" style="ellipse;shape=doubleEllipse;margin=3;whiteSpace=wrap;html=1;align=center;" vertex="1" parent="1">
          <mxGeometry x="1490" y="480" width="100" height="40" as="geometry" />
        </mxCell>
        <mxCell id="eF1gSp4A3v6u9YD-OLK1-256" value="" style="endArrow=none;html=1;rounded=0;exitX=1;exitY=0.5;exitDx=0;exitDy=0;entryX=0;entryY=0.5;entryDx=0;entryDy=0;" edge="1" source="eF1gSp4A3v6u9YD-OLK1-254" target="eF1gSp4A3v6u9YD-OLK1-251" parent="1">
          <mxGeometry relative="1" as="geometry">
            <mxPoint x="1440" y="549.4300000000001" as="sourcePoint" />
            <mxPoint x="1540" y="549.4300000000001" as="targetPoint" />
            <Array as="points" />
          </mxGeometry>
        </mxCell>
        <mxCell id="eF1gSp4A3v6u9YD-OLK1-257" value="Mileage" style="ellipse;whiteSpace=wrap;html=1;align=center;" vertex="1" parent="1">
          <mxGeometry x="1300" y="550" width="100" height="40" as="geometry" />
        </mxCell>
        <mxCell id="eF1gSp4A3v6u9YD-OLK1-263" value="" style="endArrow=none;html=1;rounded=0;exitX=0.5;exitY=1;exitDx=0;exitDy=0;entryX=0;entryY=0.5;entryDx=0;entryDy=0;" edge="1" parent="1" source="eF1gSp4A3v6u9YD-OLK1-96" target="eF1gSp4A3v6u9YD-OLK1-257">
          <mxGeometry relative="1" as="geometry">
            <mxPoint x="1230" y="520" as="sourcePoint" />
            <mxPoint x="1390" y="520" as="targetPoint" />
            <Array as="points">
              <mxPoint x="1260" y="570" />
            </Array>
          </mxGeometry>
        </mxCell>
        <mxCell id="eF1gSp4A3v6u9YD-OLK1-264" value="1" style="resizable=0;html=1;whiteSpace=wrap;align=right;verticalAlign=bottom;" connectable="0" vertex="1" parent="eF1gSp4A3v6u9YD-OLK1-263">
          <mxGeometry x="1" relative="1" as="geometry" />
        </mxCell>
        <mxCell id="eF1gSp4A3v6u9YD-OLK1-265" value="" style="endArrow=none;html=1;rounded=0;exitX=0.5;exitY=1;exitDx=0;exitDy=0;entryX=0;entryY=0.5;entryDx=0;entryDy=0;" edge="1" parent="1" source="eF1gSp4A3v6u9YD-OLK1-96" target="eF1gSp4A3v6u9YD-OLK1-254">
          <mxGeometry relative="1" as="geometry">
            <mxPoint x="1230" y="520" as="sourcePoint" />
            <mxPoint x="1390" y="520" as="targetPoint" />
            <Array as="points">
              <mxPoint x="1260" y="500" />
            </Array>
          </mxGeometry>
        </mxCell>
        <mxCell id="eF1gSp4A3v6u9YD-OLK1-266" value="1" style="resizable=0;html=1;whiteSpace=wrap;align=right;verticalAlign=bottom;" connectable="0" vertex="1" parent="eF1gSp4A3v6u9YD-OLK1-265">
          <mxGeometry x="1" relative="1" as="geometry" />
        </mxCell>
        <mxCell id="eF1gSp4A3v6u9YD-OLK1-267" value="" style="endArrow=none;html=1;rounded=0;exitX=0.5;exitY=1;exitDx=0;exitDy=0;entryX=0;entryY=0.5;entryDx=0;entryDy=0;" edge="1" parent="1" source="eF1gSp4A3v6u9YD-OLK1-96" target="eF1gSp4A3v6u9YD-OLK1-233">
          <mxGeometry relative="1" as="geometry">
            <mxPoint x="1230" y="520" as="sourcePoint" />
            <mxPoint x="1390" y="520" as="targetPoint" />
            <Array as="points">
              <mxPoint x="1260" y="423" />
            </Array>
          </mxGeometry>
        </mxCell>
        <mxCell id="eF1gSp4A3v6u9YD-OLK1-268" value="1" style="resizable=0;html=1;whiteSpace=wrap;align=right;verticalAlign=bottom;" connectable="0" vertex="1" parent="eF1gSp4A3v6u9YD-OLK1-267">
          <mxGeometry x="1" relative="1" as="geometry" />
        </mxCell>
        <mxCell id="eF1gSp4A3v6u9YD-OLK1-269" value="" style="endArrow=none;html=1;rounded=0;exitX=0.5;exitY=1;exitDx=0;exitDy=0;entryX=0;entryY=0.5;entryDx=0;entryDy=0;" edge="1" parent="1" source="eF1gSp4A3v6u9YD-OLK1-96" target="eF1gSp4A3v6u9YD-OLK1-232">
          <mxGeometry relative="1" as="geometry">
            <mxPoint x="1230" y="520" as="sourcePoint" />
            <mxPoint x="1390" y="520" as="targetPoint" />
            <Array as="points">
              <mxPoint x="1260" y="370" />
            </Array>
          </mxGeometry>
        </mxCell>
        <mxCell id="eF1gSp4A3v6u9YD-OLK1-270" value="1" style="resizable=0;html=1;whiteSpace=wrap;align=right;verticalAlign=bottom;" connectable="0" vertex="1" parent="eF1gSp4A3v6u9YD-OLK1-269">
          <mxGeometry x="1" relative="1" as="geometry" />
        </mxCell>
        <mxCell id="eF1gSp4A3v6u9YD-OLK1-271" value="" style="endArrow=none;html=1;rounded=0;exitX=0.5;exitY=1;exitDx=0;exitDy=0;entryX=0;entryY=0.5;entryDx=0;entryDy=0;" edge="1" parent="1" source="eF1gSp4A3v6u9YD-OLK1-96" target="eF1gSp4A3v6u9YD-OLK1-231">
          <mxGeometry relative="1" as="geometry">
            <mxPoint x="1230" y="520" as="sourcePoint" />
            <mxPoint x="1390" y="520" as="targetPoint" />
            <Array as="points">
              <mxPoint x="1260" y="310" />
            </Array>
          </mxGeometry>
        </mxCell>
        <mxCell id="eF1gSp4A3v6u9YD-OLK1-272" value="1" style="resizable=0;html=1;whiteSpace=wrap;align=right;verticalAlign=bottom;" connectable="0" vertex="1" parent="eF1gSp4A3v6u9YD-OLK1-271">
          <mxGeometry x="1" relative="1" as="geometry" />
        </mxCell>
        <mxCell id="eF1gSp4A3v6u9YD-OLK1-273" value="Description" style="ellipse;whiteSpace=wrap;html=1;align=center;" vertex="1" parent="1">
          <mxGeometry x="1300" y="615" width="100" height="40" as="geometry" />
        </mxCell>
        <mxCell id="eF1gSp4A3v6u9YD-OLK1-274" value="" style="endArrow=none;html=1;rounded=0;dashed=1;dashPattern=1 2;exitX=0.5;exitY=1;exitDx=0;exitDy=0;entryX=0;entryY=0.5;entryDx=0;entryDy=0;" edge="1" parent="1" source="eF1gSp4A3v6u9YD-OLK1-96" target="eF1gSp4A3v6u9YD-OLK1-273">
          <mxGeometry relative="1" as="geometry">
            <mxPoint x="1320" y="550" as="sourcePoint" />
            <mxPoint x="1480" y="550" as="targetPoint" />
            <Array as="points">
              <mxPoint x="1260" y="635" />
            </Array>
          </mxGeometry>
        </mxCell>
        <mxCell id="eF1gSp4A3v6u9YD-OLK1-275" value="1" style="resizable=0;html=1;whiteSpace=wrap;align=right;verticalAlign=bottom;" connectable="0" vertex="1" parent="eF1gSp4A3v6u9YD-OLK1-274">
          <mxGeometry x="1" relative="1" as="geometry" />
        </mxCell>
      </root>
    </mxGraphModel>
  </diagram>
</mxfile>
